<?xml version="1.0" standalone="no"?>
<!DOCTYPE svg PUBLIC "-//W3C//DTD SVG 20010904//EN"
 "http://www.w3.org/TR/2001/REC-SVG-20010904/DTD/svg10.dtd">
<svg version="1.0" xmlns="http://www.w3.org/2000/svg"
 width="886.000000pt" height="886.000000pt" viewBox="0 0 886.000000 886.000000"
 preserveAspectRatio="xMidYMid meet">
<metadata>
Created by potrace 1.11, written by Peter Selinger 2001-2013
</metadata>
<g transform="translate(0.000000,886.000000) scale(0.100000,-0.100000)"
fill="#000000" stroke="none">
<path d="M4208 8555 c-2 -1 -52 -6 -113 -9 -60 -4 -128 -9 -150 -11 -78 -8
-186 -22 -225 -30 -13 -3 -42 -7 -65 -10 -119 -16 -426 -93 -602 -151 -270
-89 -523 -200 -742 -326 -58 -33 -114 -65 -125 -72 -11 -6 -25 -14 -30 -19 -6
-4 -49 -33 -96 -65 -168 -112 -280 -198 -439 -337 -67 -58 -299 -292 -351
-355 -25 -29 -50 -58 -55 -64 -35 -38 -170 -216 -240 -319 -197 -290 -375
-649 -483 -972 -54 -165 -75 -246 -66 -254 5 -4 117 -36 249 -70 132 -35 251
-67 265 -71 14 -4 61 -17 105 -29 253 -67 366 -97 505 -136 163 -45 412 -112
445 -120 11 -2 214 -56 450 -120 237 -64 473 -127 525 -141 52 -14 129 -34
170 -45 41 -11 98 -26 125 -34 28 -7 160 -43 295 -79 135 -36 379 -102 544
-146 l298 -80 92 24 c50 14 228 61 396 106 168 45 512 137 765 205 253 68 656
176 895 240 465 124 986 265 1190 320 166 46 651 175 656 175 1 0 -5 24 -15
53 -10 28 -18 54 -18 57 0 10 -55 177 -88 265 -108 289 -271 604 -443 855 -74
108 -182 252 -227 304 -5 6 -37 43 -70 81 -77 90 -257 271 -360 361 -275 243
-605 461 -931 615 -274 129 -614 246 -889 305 -64 14 -288 54 -330 58 -27 4
-61 8 -75 11 -14 2 -56 7 -95 11 -38 3 -86 8 -105 10 -42 5 -538 13 -542 9z"/>
<path d="M323 5148 c0 -7 -3 -32 -7 -55 -9 -56 -15 -97 -21 -158 -3 -27 -8
-68 -10 -90 -36 -319 -18 -833 40 -1165 5 -26 24 -130 31 -165 26 -136 148
-555 183 -630 6 -11 31 -71 56 -134 171 -425 477 -891 805 -1226 161 -164 207
-206 435 -394 55 -45 292 -207 385 -262 338 -201 705 -354 1080 -450 160 -42
196 -50 340 -75 113 -20 125 -22 195 -29 33 -4 74 -9 90 -11 17 -3 59 -7 95
-9 36 -3 91 -7 123 -9 l57 -5 0 122 c3 935 2 3718 -1 3721 -2 2 -101 30 -219
61 -235 63 -466 125 -575 155 -56 15 -542 145 -1162 311 -40 10 -106 28 -145
38 -394 106 -615 165 -733 196 -77 20 -214 56 -305 80 -445 120 -725 195 -730
195 -4 0 -7 -6 -7 -12z"/>
<path d="M8145 5074 c-170 -46 -344 -93 -385 -105 -41 -11 -82 -22 -90 -24 -8
-2 -51 -13 -95 -25 -44 -12 -138 -37 -210 -55 -71 -19 -272 -72 -445 -118
-173 -47 -477 -129 -675 -182 -1397 -374 -1630 -437 -1634 -441 -3 -3 -4
-1518 -2 -3286 l1 -557 73 4 c66 4 114 9 222 21 74 8 130 15 145 18 8 1 38 6
65 10 78 12 85 13 170 31 115 23 298 70 390 99 44 14 85 26 90 27 20 4 172 61
278 105 237 97 460 215 682 360 102 67 267 186 299 216 8 7 29 24 47 38 72 55
219 192 330 305 227 234 425 497 603 805 65 112 191 377 245 514 98 252 192
579 225 786 3 19 7 44 10 55 19 102 44 321 53 475 12 210 6 547 -11 685 -3 17
-7 62 -11 100 -4 39 -9 72 -10 75 -2 3 -6 34 -10 70 -8 72 -11 80 -28 79 -7
-1 -151 -39 -322 -85z"/>
</g>
</svg>
